<svg width="42" height="50" viewBox="0 0 42 50" fill="none" xmlns="http://www.w3.org/2000/svg">
<path d="M20.7107 43.4913L32.1009 32.1009C38.3917 25.8104 38.3917 15.6111 32.1009 9.32039C25.8104 3.0297 15.6111 3.0297 9.32039 9.32039C3.0297 15.6111 3.0297 25.8104 9.32039 32.1009L20.7107 43.4913ZM20.7107 50L6.06603 35.3555C-2.02201 27.2672 -2.02201 14.1541 6.06603 6.06603C14.1541 -2.02201 27.2672 -2.02201 35.3555 6.06603C43.4435 14.1541 43.4435 27.2672 35.3555 35.3555L20.7107 50ZM20.7107 25.3131C23.2526 25.3131 25.3131 23.2526 25.3131 20.7107C25.3131 18.1689 23.2526 16.1083 20.7107 16.1083C18.1688 16.1083 16.1083 18.1689 16.1083 20.7107C16.1083 23.2526 18.1688 25.3131 20.7107 25.3131ZM20.7107 29.9155C15.6271 29.9155 11.5059 25.7943 11.5059 20.7107C11.5059 15.6271 15.6271 11.5059 20.7107 11.5059C25.7943 11.5059 29.9155 15.6271 29.9155 20.7107C29.9155 25.7943 25.7943 29.9155 20.7107 29.9155Z" fill="white"/>
</svg>
