<svg width="50" height="52" viewBox="0 0 50 52" fill="none" xmlns="http://www.w3.org/2000/svg">
<path d="M50 37.0801C49.9975 44.176 44.954 50.1067 38.218 51.5625L36.623 46.8318C39.633 46.3461 42.1912 44.5319 43.6622 42.018H37.5C34.7385 42.018 32.5 39.8049 32.5 37.0747V27.1881C32.5 24.4579 34.7385 22.2448 37.5 22.2448H44.8453C43.615 12.4909 35.199 4.94329 25 4.94329C14.801 4.94329 6.38498 12.4909 5.15473 22.2448H12.5C15.2614 22.2448 17.5 24.4579 17.5 27.1881V37.0747C17.5 39.8049 15.2614 42.018 12.5 42.018H5C2.23857 42.018 0 39.8049 0 37.0747V24.7165C0 11.0659 11.1929 0 25 0C38.807 0 50 11.0659 50 24.7165V37.0801Z" fill="white"/>
</svg>
